# xmcd
#
# Track frame offsets: 
#        150
#        10573
#        25339
#        48505
#        74905
#        90624
#        108049
#        126045
#        153243
#        165122
#
# Disc length: 2444 seconds
#
# Revision: 0
# Processed by: cddbd v1.5.2PL0 Copyright (c) Steve Scherf et al.
# Submitted via: ExactAudioCopy v1.3
#
DISCID=6f098a0a
DTITLE=峯モトタカオ - d
DYEAR=2018
DGENRE=Instrumental
TTITLE0=Recollection
TTITLE1=Gorilla Attack
TTITLE2=Echoing bells on snowy day
TTITLE3=水琴窟
TTITLE4=Nostalgia
TTITLE5=Labyrinth
TTITLE6=A ray of light
TTITLE7=Impromptu
TTITLE8=鼓動 -Remix-
TTITLE9=Sunset
EXTD=
EXTT0=
EXTT1=
EXTT2=
EXTT3=
EXTT4=
EXTT5=
EXTT6=
EXTT7=
EXTT8=
EXTT9=
PLAYORDER=
